<svg width="120" height="137" viewBox="0 0 120 137" fill="none" xmlns="http://www.w3.org/2000/svg">
<path d="M109.418 59.3712C103.857 59.3712 99.3326 63.8959 99.3326 69.4567V77.7979V89.7546V110.75C99.3326 114.006 96.6791 116.66 93.423 116.66C90.1668 116.66 87.5133 114.006 87.5133 110.75V78.2419V77.7979V36.441C87.5133 30.8802 82.9886 26.3555 77.4278 26.3555C71.8671 26.3555 67.3423 30.8802 67.3423 36.441V82.6926V110.803V126.513C67.3423 129.769 64.6888 132.422 61.4327 132.422C58.1766 132.422 55.5231 129.769 55.5231 126.513V26.6092V26.3449V10.0855C55.5231 4.52472 50.9983 0 45.4376 0C39.8768 0 35.3521 4.52472 35.3521 10.0855V81.35V108.213C35.3521 111.469 32.6986 114.123 29.4424 114.123C26.1863 114.123 23.5328 111.469 23.5328 108.213V89.744V81.35V54.4553C23.5328 48.8946 19.0081 44.3698 13.4473 44.3698C7.88654 44.3698 3.36182 48.8946 3.36182 54.4553V83.6758H7.53767V54.4553C7.53767 51.1992 10.1912 48.5457 13.4473 48.5457C16.7034 48.5457 19.357 51.1992 19.357 54.4553V81.35V89.744V108.213C19.357 113.774 23.8817 118.298 29.4424 118.298C35.0032 118.298 39.5279 113.774 39.5279 108.213V81.35V10.0855C39.5279 6.82937 42.1815 4.17586 45.4376 4.17586C48.6937 4.17586 51.3472 6.82937 51.3472 10.0855V26.3449V26.6092V126.513C51.3472 132.073 55.8719 136.598 61.4327 136.598C66.9935 136.598 71.5182 132.073 71.5182 126.513V110.803V82.6926V36.441C71.5182 33.1849 74.1717 30.5314 77.4278 30.5314C80.684 30.5314 83.3375 33.1849 83.3375 36.441V77.7979V78.2419V110.75C83.3375 116.311 87.8622 120.836 93.423 120.836C98.9837 120.836 103.508 116.311 103.508 110.75V89.7546V77.7979V69.4567C103.508 66.2006 106.162 63.5471 109.418 63.5471C112.674 63.5471 115.328 66.2006 115.328 69.4567V83.4538H119.504V69.4673C119.514 63.896 114.989 59.3712 109.418 59.3712Z" fill="white"/>
<path d="M10.8361 85.8959H0V107.557H10.8361V85.8959Z" fill="white"/>
<path d="M7.91817 109.545H3.58374V123.574H7.91817V109.545Z" fill="white"/>
<path d="M7.91817 124.737H3.58374V126.47H7.91817V124.737Z" fill="white"/>
<path d="M5.75095 129.388C6.94556 129.388 7.91817 130.361 7.91817 131.555C7.91817 132.75 6.94556 133.723 5.75095 133.723C4.55633 133.723 3.58374 132.75 3.58374 131.555C3.58374 130.35 4.55633 129.388 5.75095 129.388Z" fill="white"/>
<path d="M6.9244 127.57H4.40833V130.604H6.9244V127.57Z" fill="white"/>
<path d="M114.417 91.2278C117.356 90.8729 119.45 88.2027 119.095 85.2638C118.74 82.3249 116.07 80.2302 113.131 80.5852C110.192 80.9401 108.098 83.6102 108.453 86.5491C108.808 89.488 111.478 91.5827 114.417 91.2278Z" fill="white"/>
</svg>
