<svg width="250" height="179" viewBox="0 0 250 179" fill="none" xmlns="http://www.w3.org/2000/svg">
<path d="M171.5 56.16C166.24 56.16 161.96 60.44 161.96 65.7V73.59V84.9V104.76C161.96 107.84 159.45 110.35 156.37 110.35C153.29 110.35 150.78 107.84 150.78 104.76V74.01V73.59V34.47C150.78 29.21 146.5 24.93 141.24 24.93C135.98 24.93 131.7 29.21 131.7 34.47V78.22V104.81V119.67C131.7 122.75 129.19 125.26 126.11 125.26C123.03 125.26 120.52 122.75 120.52 119.67V25.17V24.92V9.53999C120.52 4.27999 116.24 0 110.98 0C105.72 0 101.44 4.27999 101.44 9.53999V76.95V102.36C101.44 105.44 98.93 107.95 95.85 107.95C92.77 107.95 90.26 105.44 90.26 102.36V84.89V76.95V51.51C90.26 46.25 85.98 41.97 80.72 41.97C75.46 41.97 71.18 46.25 71.18 51.51V79.15H75.13V51.51C75.13 48.43 77.64 45.92 80.72 45.92C83.8 45.92 86.31 48.43 86.31 51.51V76.95V84.89V102.36C86.31 107.62 90.59 111.9 95.85 111.9C101.11 111.9 105.39 107.62 105.39 102.36V76.95V9.53999C105.39 6.45999 107.9 3.95 110.98 3.95C114.06 3.95 116.57 6.45999 116.57 9.53999V24.92V25.17V119.67C116.57 124.93 120.85 129.21 126.11 129.21C131.37 129.21 135.65 124.93 135.65 119.67V104.81V78.22V34.47C135.65 31.39 138.16 28.88 141.24 28.88C144.32 28.88 146.83 31.39 146.83 34.47V73.59V74.01V104.76C146.83 110.02 151.11 114.3 156.37 114.3C161.63 114.3 165.91 110.02 165.91 104.76V84.9V73.59V65.7C165.91 62.62 168.42 60.11 171.5 60.11C174.58 60.11 177.09 62.62 177.09 65.7V78.94H181.04V65.71C181.05 60.44 176.77 56.16 171.5 56.16Z" fill="white"/>
<path d="M78.25 81.25H68V101.74H78.25V81.25Z" fill="white"/>
<path d="M75.49 103.62H71.39V116.89H75.49V103.62Z" fill="white"/>
<path d="M75.49 117.99H71.39V119.63H75.49V117.99Z" fill="white"/>
<path d="M73.44 122.39C74.57 122.39 75.49 123.31 75.49 124.44C75.49 125.57 74.57 126.49 73.44 126.49C72.31 126.49 71.39 125.57 71.39 124.44C71.39 123.3 72.31 122.39 73.44 122.39Z" fill="white"/>
<path d="M74.55 120.67H72.17V123.54H74.55V120.67Z" fill="white"/>
<path d="M176.228 86.2936C179.008 85.9578 180.99 83.4321 180.654 80.6522C180.318 77.8722 177.792 75.8908 175.013 76.2266C172.233 76.5623 170.251 79.088 170.587 81.8679C170.923 84.6479 173.448 86.6293 176.228 86.2936Z" fill="white"/>
<path d="M14.2393 151.713C14.2393 153.289 13.9742 154.667 13.4439 155.845C12.9137 157.016 12.1625 157.911 11.1904 158.529C10.2183 159.148 9.08413 159.457 7.78798 159.457C6.52128 159.457 5.39819 159.148 4.41871 158.529C3.43923 157.903 2.677 157.016 2.13203 155.867C1.59442 154.711 1.31825 153.374 1.30352 151.857V150.697C1.30352 149.15 1.57232 147.784 2.10993 146.599C2.64754 145.413 3.40609 144.507 4.38557 143.881C5.37242 143.248 6.49919 142.931 7.76588 142.931C9.05468 142.931 10.1888 143.244 11.1683 143.87C12.1551 144.489 12.9137 145.391 13.4439 146.577C13.9742 147.755 14.2393 149.128 14.2393 150.697V151.713ZM12.1294 150.675C12.1294 148.768 11.7464 147.306 10.9805 146.289C10.2146 145.266 9.14305 144.754 7.76588 144.754C6.42554 144.754 5.36873 145.266 4.59546 146.289C3.82955 147.306 3.43555 148.72 3.41345 150.531V151.713C3.41345 153.562 3.80009 155.016 4.57337 156.077C5.354 157.13 6.42554 157.657 7.78798 157.657C9.15778 157.657 10.2183 157.159 10.9695 156.165C11.7206 155.164 12.1073 153.731 12.1294 151.868V150.675ZM19.5417 152.94V159.236H17.4208V143.152H23.3529C25.113 143.152 26.4902 143.601 27.4844 144.5C28.486 145.398 28.9867 146.588 28.9867 148.068C28.9867 149.629 28.497 150.833 27.5175 151.68C26.5454 152.52 25.1498 152.94 23.3308 152.94H19.5417ZM19.5417 151.205H23.3529C24.487 151.205 25.356 150.94 25.9599 150.41C26.5638 149.872 26.8658 149.099 26.8658 148.09C26.8658 147.133 26.5638 146.367 25.9599 145.792C25.356 145.218 24.5275 144.92 23.4744 144.897H19.5417V151.205ZM40.7847 151.802H33.8142V157.502H41.9115V159.236H31.6932V143.152H41.801V144.897H33.8142V150.067H40.7847V151.802ZM56.913 159.236H54.781L46.6837 146.842V159.236H44.5517V143.152H46.6837L54.8031 155.602V143.152H56.913V159.236ZM69.0313 143.152L74.2896 156.276L79.5478 143.152H82.2985V159.236H80.1775V152.973L80.3764 146.212L75.096 159.236H73.4721L68.2028 146.245L68.4127 152.973V159.236H66.2917V143.152H69.0313ZM97.3663 143.152V154.088C97.3589 155.605 96.8802 156.846 95.9302 157.811C94.9876 158.776 93.7061 159.317 92.0859 159.435L91.5226 159.457C89.7624 159.457 88.3595 158.982 87.3137 158.032C86.268 157.082 85.7377 155.775 85.723 154.11V143.152H87.8219V154.044C87.8219 155.208 88.1422 156.114 88.783 156.762C89.4237 157.402 90.3369 157.723 91.5226 157.723C92.723 157.723 93.6399 157.402 94.2732 156.762C94.9139 156.121 95.2343 155.219 95.2343 154.055V143.152H97.3663ZM105.453 152.067C103.634 151.544 102.308 150.903 101.476 150.145C100.651 149.379 100.238 148.436 100.238 147.317C100.238 146.05 100.743 145.004 101.752 144.179C102.768 143.347 104.086 142.931 105.707 142.931C106.811 142.931 107.794 143.145 108.656 143.572C109.525 143.999 110.195 144.588 110.667 145.339C111.145 146.091 111.385 146.912 111.385 147.803H109.253C109.253 146.831 108.943 146.068 108.325 145.516C107.706 144.956 106.833 144.677 105.707 144.677C104.661 144.677 103.843 144.909 103.254 145.372C102.672 145.829 102.382 146.466 102.382 147.284C102.382 147.939 102.658 148.495 103.21 148.952C103.77 149.401 104.716 149.813 106.049 150.189C107.389 150.564 108.435 150.981 109.186 151.437C109.945 151.886 110.505 152.413 110.865 153.017C111.234 153.621 111.418 154.331 111.418 155.149C111.418 156.452 110.91 157.498 109.893 158.286C108.877 159.067 107.518 159.457 105.817 159.457C104.712 159.457 103.681 159.247 102.724 158.827C101.767 158.4 101.026 157.819 100.504 157.082C99.9881 156.346 99.7303 155.51 99.7303 154.574H101.862C101.862 155.547 102.22 156.316 102.934 156.883C103.656 157.443 104.617 157.723 105.817 157.723C106.936 157.723 107.794 157.494 108.391 157.038C108.988 156.581 109.286 155.959 109.286 155.171C109.286 154.383 109.01 153.775 108.457 153.348C107.905 152.914 106.903 152.487 105.453 152.067ZM116.422 159.236H114.301V143.152H116.422V159.236ZM132.142 154.133C131.943 155.834 131.313 157.148 130.253 158.076C129.199 158.997 127.796 159.457 126.044 159.457C124.144 159.457 122.619 158.776 121.47 157.413C120.329 156.051 119.758 154.228 119.758 151.945V150.399C119.758 148.904 120.023 147.589 120.553 146.455C121.091 145.321 121.85 144.452 122.829 143.848C123.809 143.237 124.943 142.931 126.232 142.931C127.94 142.931 129.31 143.41 130.341 144.367C131.372 145.317 131.972 146.635 132.142 148.322H130.01C129.825 147.041 129.424 146.113 128.805 145.538C128.194 144.964 127.336 144.677 126.232 144.677C124.876 144.677 123.812 145.177 123.039 146.179C122.273 147.18 121.89 148.606 121.89 150.454V152.012C121.89 153.757 122.255 155.145 122.984 156.176C123.713 157.207 124.733 157.723 126.044 157.723C127.222 157.723 128.124 157.458 128.75 156.927C129.384 156.39 129.803 155.458 130.01 154.133H132.142ZM140.659 159.236V143.152H145.199C146.598 143.152 147.835 143.461 148.911 144.08C149.986 144.699 150.814 145.579 151.396 146.72C151.985 147.862 152.284 149.173 152.291 150.653V151.68C152.291 153.197 151.996 154.527 151.407 155.668C150.825 156.81 149.989 157.686 148.9 158.297C147.817 158.908 146.554 159.221 145.11 159.236H140.659ZM142.78 144.897V157.502H145.011C146.646 157.502 147.916 156.994 148.822 155.977C149.735 154.961 150.192 153.514 150.192 151.636V150.697C150.192 148.871 149.761 147.453 148.9 146.444C148.045 145.428 146.83 144.912 145.254 144.897H142.78ZM164.144 155.038H157.406L155.892 159.236H153.705L159.847 143.152H161.703L167.856 159.236H165.68L164.144 155.038ZM158.046 153.293H163.514L160.775 145.77L158.046 153.293ZM179.698 144.897H174.528V159.236H172.418V144.897H167.259V143.152H179.698V144.897ZM190.082 155.038H183.343L181.83 159.236H179.643L185.785 143.152H187.641L193.794 159.236H191.617L190.082 155.038ZM183.984 153.293H189.452L186.713 145.77L183.984 153.293ZM195.959 159.236V143.152H201.217C202.962 143.152 204.273 143.513 205.15 144.235C206.033 144.956 206.475 146.024 206.475 147.438C206.475 148.189 206.262 148.856 205.835 149.438C205.407 150.012 204.826 150.458 204.089 150.774C204.958 151.017 205.643 151.481 206.144 152.166C206.652 152.844 206.906 153.654 206.906 154.597C206.906 156.04 206.439 157.174 205.503 157.999C204.568 158.824 203.246 159.236 201.537 159.236H195.959ZM198.08 151.713V157.502H201.582C202.568 157.502 203.345 157.248 203.912 156.74C204.487 156.224 204.774 155.517 204.774 154.619C204.774 152.682 203.721 151.713 201.615 151.713H198.08ZM198.08 150.012H201.283C202.211 150.012 202.951 149.78 203.504 149.316C204.063 148.852 204.343 148.223 204.343 147.427C204.343 146.543 204.086 145.903 203.57 145.505C203.055 145.1 202.27 144.897 201.217 144.897H198.08V150.012ZM218.936 155.038H212.198L210.684 159.236H208.497L214.639 143.152H216.495L222.648 159.236H220.472L218.936 155.038ZM212.838 153.293H218.306L215.567 145.77L212.838 153.293ZM229.552 152.067C227.733 151.544 226.407 150.903 225.575 150.145C224.75 149.379 224.338 148.436 224.338 147.317C224.338 146.05 224.842 145.004 225.851 144.179C226.868 143.347 228.186 142.931 229.806 142.931C230.911 142.931 231.894 143.145 232.756 143.572C233.625 143.999 234.295 144.588 234.766 145.339C235.245 146.091 235.484 146.912 235.484 147.803H233.352C233.352 146.831 233.043 146.068 232.424 145.516C231.806 144.956 230.933 144.677 229.806 144.677C228.76 144.677 227.943 144.909 227.354 145.372C226.772 145.829 226.481 146.466 226.481 147.284C226.481 147.939 226.757 148.495 227.31 148.952C227.869 149.401 228.816 149.813 230.149 150.189C231.489 150.564 232.535 150.981 233.286 151.437C234.044 151.886 234.604 152.413 234.965 153.017C235.333 153.621 235.517 154.331 235.517 155.149C235.517 156.452 235.009 157.498 233.993 158.286C232.977 159.067 231.618 159.457 229.917 159.457C228.812 159.457 227.781 159.247 226.823 158.827C225.866 158.4 225.126 157.819 224.603 157.082C224.088 156.346 223.83 155.51 223.83 154.574H225.962C225.962 155.547 226.319 156.316 227.033 156.883C227.755 157.443 228.716 157.723 229.917 157.723C231.036 157.723 231.894 157.494 232.49 157.038C233.087 156.581 233.385 155.959 233.385 155.171C233.385 154.383 233.109 153.775 232.557 153.348C232.004 152.914 231.003 152.487 229.552 152.067ZM247.337 151.802H240.367V157.502H248.464V159.236H238.246V143.152H248.354V144.897H240.367V150.067H247.337V151.802Z" fill="white"/>
<path d="M80.0329 170.994H75.4034V175.032H80.7263V175.739H74.5672V165.841H80.6923V166.555H75.4034V170.287H80.0329V170.994ZM86.9465 175.739C86.8649 175.508 86.8128 175.166 86.7901 174.713C86.5046 175.085 86.1398 175.372 85.6956 175.576C85.256 175.776 84.7892 175.875 84.2953 175.875C83.5883 175.875 83.015 175.678 82.5753 175.284C82.1403 174.89 81.9227 174.391 81.9227 173.788C81.9227 173.072 82.2196 172.506 82.8133 172.089C83.4115 171.672 84.2431 171.463 85.3082 171.463H86.7833V170.627C86.7833 170.102 86.6202 169.689 86.2939 169.39C85.9721 169.086 85.5008 168.935 84.8799 168.935C84.3134 168.935 83.8443 169.08 83.4727 169.37C83.1011 169.66 82.9152 170.009 82.9152 170.417L82.0995 170.41C82.0995 169.825 82.3714 169.32 82.9152 168.894C83.4591 168.463 84.1276 168.248 84.9207 168.248C85.741 168.248 86.3868 168.454 86.8581 168.867C87.334 169.274 87.5787 169.845 87.5923 170.58V174.06C87.5923 174.772 87.6671 175.304 87.8166 175.658V175.739H86.9465ZM84.3904 175.155C84.9343 175.155 85.4192 175.023 85.8452 174.76C86.2757 174.498 86.5885 174.146 86.7833 173.707V172.089H85.3286C84.5173 172.098 83.8828 172.247 83.4251 172.538C82.9674 172.823 82.7385 173.217 82.7385 173.72C82.7385 174.133 82.8903 174.475 83.194 174.747C83.5021 175.019 83.901 175.155 84.3904 175.155ZM94.1728 173.87C94.1728 173.467 94.0097 173.143 93.6834 172.898C93.3616 172.653 92.8744 172.463 92.2218 172.327C91.5692 172.186 91.0616 172.028 90.699 171.851C90.341 171.67 90.0736 171.45 89.8968 171.192C89.7246 170.933 89.6385 170.62 89.6385 170.253C89.6385 169.673 89.881 169.195 90.3659 168.819C90.8508 168.438 91.4717 168.248 92.2286 168.248C93.0489 168.248 93.706 168.452 94.2 168.86C94.6985 169.263 94.9478 169.791 94.9478 170.444H94.132C94.132 170.013 93.9507 169.655 93.5882 169.37C93.2302 169.084 92.7769 168.941 92.2286 168.941C91.6938 168.941 91.2633 169.061 90.9369 169.302C90.6152 169.537 90.4543 169.845 90.4543 170.226C90.4543 170.593 90.588 170.879 90.8554 171.083C91.1273 171.282 91.619 171.466 92.3305 171.633C93.0466 171.801 93.5814 171.98 93.9349 172.17C94.2929 172.361 94.558 172.59 94.7303 172.857C94.9025 173.124 94.9886 173.448 94.9886 173.829C94.9886 174.45 94.7371 174.946 94.234 175.318C93.7355 175.69 93.0829 175.875 92.2762 175.875C91.4196 175.875 90.7239 175.669 90.1892 175.257C89.6589 174.84 89.3938 174.314 89.3938 173.68H90.2096C90.2413 174.155 90.4407 174.527 90.8078 174.794C91.1794 175.057 91.6689 175.189 92.2762 175.189C92.8427 175.189 93.3004 175.064 93.6494 174.815C93.9983 174.566 94.1728 174.251 94.1728 173.87ZM99.1558 174.57L101.304 168.384H102.181L99.0402 176.99L98.8771 177.371C98.4737 178.264 97.8506 178.71 97.0076 178.71C96.8127 178.71 96.6042 178.678 96.3822 178.615L96.3754 177.942L96.7969 177.983C97.1957 177.983 97.5175 177.883 97.7622 177.684C98.0114 177.489 98.2222 177.151 98.3944 176.671L98.7547 175.678L95.9811 168.384H96.8716L99.1558 174.57ZM111.474 175.739C111.392 175.508 111.34 175.166 111.317 174.713C111.032 175.085 110.667 175.372 110.223 175.576C109.783 175.776 109.317 175.875 108.823 175.875C108.116 175.875 107.542 175.678 107.103 175.284C106.668 174.89 106.45 174.391 106.45 173.788C106.45 173.072 106.747 172.506 107.341 172.089C107.939 171.672 108.77 171.463 109.836 171.463H111.311V170.627C111.311 170.102 111.148 169.689 110.821 169.39C110.499 169.086 110.028 168.935 109.407 168.935C108.841 168.935 108.372 169.08 108 169.37C107.628 169.66 107.443 170.009 107.443 170.417L106.627 170.41C106.627 169.825 106.899 169.32 107.443 168.894C107.986 168.463 108.655 168.248 109.448 168.248C110.268 168.248 110.914 168.454 111.385 168.867C111.861 169.274 112.106 169.845 112.12 170.58V174.06C112.12 174.772 112.194 175.304 112.344 175.658V175.739H111.474ZM108.918 175.155C109.462 175.155 109.947 175.023 110.373 174.76C110.803 174.498 111.116 174.146 111.311 173.707V172.089H109.856C109.045 172.098 108.41 172.247 107.952 172.538C107.495 172.823 107.266 173.217 107.266 173.72C107.266 174.133 107.418 174.475 107.721 174.747C108.03 175.019 108.428 175.155 108.918 175.155ZM115.07 168.384L115.097 169.642C115.374 169.188 115.718 168.844 116.131 168.608C116.543 168.368 116.998 168.248 117.497 168.248C118.285 168.248 118.872 168.47 119.258 168.914C119.643 169.358 119.838 170.025 119.842 170.913V175.739H119.033V170.906C119.029 170.249 118.888 169.759 118.612 169.438C118.34 169.116 117.903 168.955 117.3 168.955C116.797 168.955 116.35 169.114 115.961 169.431C115.575 169.744 115.29 170.167 115.104 170.702V175.739H114.295V168.384H115.07ZM121.623 171.994C121.623 170.852 121.877 169.943 122.385 169.268C122.897 168.588 123.59 168.248 124.465 168.248C125.457 168.248 126.214 168.64 126.735 169.424V165.298H127.544V175.739H126.783L126.749 174.76C126.228 175.504 125.462 175.875 124.451 175.875C123.604 175.875 122.919 175.535 122.398 174.856C121.882 174.171 121.623 173.249 121.623 172.089V171.994ZM122.446 172.136C122.446 173.075 122.634 173.816 123.01 174.359C123.386 174.899 123.917 175.168 124.601 175.168C125.602 175.168 126.314 174.726 126.735 173.843V170.389C126.314 169.433 125.607 168.955 124.614 168.955C123.93 168.955 123.398 169.225 123.017 169.764C122.636 170.299 122.446 171.09 122.446 172.136ZM138.714 171.117H134.098V175.739H133.262V165.841H139.393V166.555H134.098V170.403H138.714V171.117ZM144.125 169.077C143.953 169.046 143.769 169.03 143.574 169.03C143.067 169.03 142.636 169.172 142.283 169.458C141.934 169.739 141.684 170.149 141.535 170.688V175.739H140.726V168.384H141.521L141.535 169.553C141.965 168.683 142.656 168.248 143.608 168.248C143.835 168.248 144.014 168.277 144.145 168.336L144.125 169.077ZM148.129 175.875C147.503 175.875 146.937 175.721 146.429 175.413C145.926 175.105 145.534 174.677 145.253 174.128C144.972 173.575 144.832 172.957 144.832 172.272V171.98C144.832 171.273 144.968 170.636 145.24 170.07C145.516 169.503 145.899 169.059 146.389 168.737C146.878 168.411 147.408 168.248 147.979 168.248C148.872 168.248 149.579 168.554 150.1 169.166C150.626 169.773 150.889 170.605 150.889 171.661V172.116H145.641V172.272C145.641 173.106 145.879 173.802 146.355 174.359C146.835 174.912 147.438 175.189 148.163 175.189C148.598 175.189 148.981 175.109 149.312 174.951C149.647 174.792 149.951 174.538 150.223 174.189L150.733 174.577C150.134 175.443 149.266 175.875 148.129 175.875ZM147.979 168.941C147.368 168.941 146.851 169.166 146.429 169.614C146.012 170.063 145.759 170.666 145.668 171.423H150.08V171.334C150.057 170.627 149.856 170.052 149.475 169.608C149.094 169.163 148.596 168.941 147.979 168.941ZM155.321 175.875C154.696 175.875 154.129 175.721 153.622 175.413C153.119 175.105 152.727 174.677 152.446 174.128C152.165 173.575 152.024 172.957 152.024 172.272V171.98C152.024 171.273 152.16 170.636 152.432 170.07C152.709 169.503 153.091 169.059 153.581 168.737C154.07 168.411 154.601 168.248 155.172 168.248C156.064 168.248 156.771 168.554 157.293 169.166C157.818 169.773 158.081 170.605 158.081 171.661V172.116H152.833V172.272C152.833 173.106 153.071 173.802 153.547 174.359C154.027 174.912 154.63 175.189 155.355 175.189C155.79 175.189 156.173 175.109 156.504 174.951C156.839 174.792 157.143 174.538 157.415 174.189L157.925 174.577C157.327 175.443 156.459 175.875 155.321 175.875ZM155.172 168.941C154.56 168.941 154.043 169.166 153.622 169.614C153.205 170.063 152.951 170.666 152.86 171.423H157.272V171.334C157.25 170.627 157.048 170.052 156.667 169.608C156.287 169.163 155.788 168.941 155.172 168.941Z" fill="white"/>
</svg>
